# xmcd CD database file
#
# Track frame offsets:
#	150
#	7022
#	26307
#	42880
#	63060
#	69154
#	90295
#	109936
#	132477
#	150940
#	168697
#	190935
#	192181
#	219705
#
# Disc length: 3115 seconds
#
# Revision: 0
# Processed by: cddbd v1.4PL0 Copyright (c) Steve Scherf et al.
# Submitted via: CDex 1.50beta9
#
DISCID=b10c290e
DTITLE=Terence Trent D'Arby - Neither Fish Nor Flesh
DYEAR=1984
DGENRE=Blues
TTITLE0=Have Faith
TTITLE1=These Desolate Times
TTITLE2=It Feels So Good
TTITLE3=To Love Someone Like You
TTITLE4=To Know Someone Deeply Is To Know Someone Softly
TTITLE5=I'll Be Alright
TTITLE6=Billy Don't Fall
TTITLE7=Attracted To You
TTITLE8=Roly Poly
TTITLE9=You Will Pay Tomorrow
TTITLE10=I Don't Want To Bring Your Gods Down
TTITLE11=And I Need To Be With Someone
TTITLE12=Tonight (part 1)
TTITLE13=Tonight (part 2)
EXTD=YEAR: 1984
EXTT0=
EXTT1=
EXTT2=
EXTT3=
EXTT4=
EXTT5=
EXTT6=
EXTT7=
EXTT8=
EXTT9=
EXTT10=
EXTT11=
EXTT12=
EXTT13=
PLAYORDER=
